<svg xmlns="http://www.w3.org/2000/svg" version="1.1" xmlns:xlink="http://www.w3.org/1999/xlink" xmlns:svgjs="http://svgjs.dev/svgjs" width="1500" height="715" viewBox="0 0 1500 715"><g transform="matrix(1,0,0,1,-0.9090909090909918,-0.3019900996520164)"><svg viewBox="0 0 396 189" data-background-color="#051726" preserveAspectRatio="xMidYMid meet" height="715" width="1500" xmlns="http://www.w3.org/2000/svg" xmlns:xlink="http://www.w3.org/1999/xlink"><g id="tight-bounds" transform="matrix(1,0,0,1,0.2400000000000091,0.0798267536143129)"><svg viewBox="0 0 395.52 188.84034649277137" height="188.84034649277137" width="395.52"><g><svg viewBox="0 0 397.4975999999999 189.7845482252352" height="188.84034649277137" width="395.52"><g><rect width="397.4975999999999" height="5.428924271242576" x="0" y="97.40864430465935" fill="#ffffff" opacity="1" stroke-width="0" stroke="transparent" fill-opacity="1" class="rect-yte-0" data-fill-palette-color="primary" rx="1%" id="yte-0" data-palette-color="#ffffff"></rect></g><g><rect width="397.4975999999999" height="5.428924271242576" x="0" y="109.94349039690006" fill="#ffffff" opacity="1" stroke-width="0" stroke="transparent" fill-opacity="1" class="rect-yte-1" data-fill-palette-color="primary" rx="1%" id="yte-1" data-palette-color="#ffffff"></rect></g><g transform="matrix(1,0,0,1,0.9887999999999693,129.58425831013892)"><svg viewBox="0 0 395.52 60.20028991509629" height="60.20028991509629" width="395.52"><g id="textblocktransform"><svg viewBox="0 0 395.52 60.20028991509629" height="60.20028991509629" width="395.52" id="textblock"><g><svg viewBox="0 0 395.52 60.20028991509629" height="60.20028991509629" width="395.52"><g transform="matrix(1,0,0,1,0,0)"><svg width="395.52" viewBox="3.45 -36 241.44 36.75" height="60.20028991509629" data-palette-color="#ffffff"><path d="M8.9-4.5L9.4-4.5 9.4-17.7 22.85-17.7Q25.6-17.7 27-16.7 28.4-15.7 28.4-13.3L28.4-13.3 28.4-4.5 28.9-4.5 28.9-13.3Q28.9-15.9 27.4-17.05 25.9-18.2 22.85-18.2L22.85-18.2 20.8-18.2 26.55-31.5 26-31.5 20.25-18.2 9.4-18.2 9.4-31.5 8.9-31.5 8.9-4.5ZM13 0L13 0 5.25 0Q4.3 0 3.88-0.43 3.45-0.85 3.45-1.8L3.45-1.8 3.45-34.2Q3.45-35.15 3.88-35.58 4.3-36 5.25-36L5.25-36 13-36Q13.95-36 14.38-35.58 14.8-35.15 14.8-34.2L14.8-34.2 14.8-22.7 16.8-22.7 21.95-34.35Q22.3-35.25 22.9-35.63 23.5-36 24.45-36L24.45-36 32.15-36Q33-36 33.3-35.58 33.6-35.15 33.25-34.35L33.25-34.35 28.15-22.7Q30.95-22.55 32.63-20.73 34.3-18.9 34.3-15.9L34.3-15.9 34.3-1.8Q34.3-0.85 33.88-0.43 33.45 0 32.5 0L32.5 0 24.8 0Q23.85 0 23.43-0.43 23-0.85 23-1.8L23-1.8 23-11.55Q23-12.35 22.6-12.8 22.2-13.25 21.4-13.25L21.4-13.25 14.8-13.25 14.8-1.8Q14.8-0.85 14.38-0.43 13.95 0 13 0ZM45.8-13.6L45.8-15.15Q45.8-16.5 46.02-17.65 46.25-18.8 46.6-19.8L46.6-19.8 49.8-28Q50.3-29.25 50.9-30.13 51.5-31 53-31L53-31 57.9-31Q59.3-31 59.9-30.13 60.5-29.25 61.05-27.95L61.05-27.95 64.5-19.8Q64.85-18.8 65.07-17.65 65.3-16.5 65.3-15.15L65.3-15.15 65.3-13.6 45.8-13.6ZM53.8-25.5L53.8-25.5 51.45-17.9 59.3-17.9 56.95-25.5Q56.75-25.95 56.52-26.15 56.3-26.35 56-26.35L56-26.35 54.75-26.35Q54.45-26.35 54.22-26.15 54-25.95 53.8-25.5ZM65.3-13.1L65.3-4.5 65.8-4.5 65.8-15.15Q65.8-16.55 65.57-17.73 65.35-18.9 64.95-20L64.95-20 61.5-28.15Q60.9-29.6 60.22-30.55 59.55-31.5 57.9-31.5L57.9-31.5 53-31.5Q51.3-31.5 50.6-30.55 49.9-29.6 49.35-28.2L49.35-28.2 46.15-20Q45.75-18.9 45.52-17.73 45.3-16.55 45.3-15.15L45.3-15.15 45.3-4.5 45.8-4.5 45.8-13.1 65.3-13.1ZM50.95-8.8L50.95-1.8Q50.95-0.85 50.52-0.43 50.1 0 49.15 0L49.15 0 41.8 0Q40.85 0 40.42-0.43 40-0.85 40-1.8L40-1.8 40-15Q40-16.5 40.47-18.45 40.95-20.4 41.95-23L41.95-23 46.3-34.35Q46.6-35.2 47.22-35.6 47.85-36 48.85-36L48.85-36 62.3-36Q63.25-36 63.87-35.6 64.5-35.2 64.8-34.35L64.8-34.35 69.15-23Q70.15-20.4 70.62-18.45 71.1-16.5 71.1-15L71.1-15 71.1-1.8Q71.1-0.85 70.67-0.43 70.25 0 69.3 0L69.3 0 61.75 0Q60.75 0 60.27-0.43 59.8-0.85 59.8-1.8L59.8-1.8 59.8-8.8 50.95-8.8ZM98.05 0L98.05 0 85.05 0Q84.1 0 83.47-0.35 82.85-0.7 82.5-1.65L82.5-1.65 77.6-13.9Q77.15-15 76.85-15.83 76.55-16.65 76.35-17.4 76.15-18.15 76.07-18.98 76-19.8 76-21L76-21 76-34.2Q76-35.15 76.42-35.58 76.85-36 77.8-36L77.8-36 85.75-36Q86.7-36 87.2-35.58 87.7-35.15 87.7-34.2L87.7-34.2 87.7-20.4Q87.7-19.9 87.8-19.4 87.9-18.9 88.1-18.35L88.1-18.35 90.45-11.35Q90.6-10.85 90.8-10.68 91-10.5 91.4-10.5L91.4-10.5 91.95-10.5Q92.35-10.5 92.55-10.68 92.75-10.85 92.9-11.35L92.9-11.35 95.25-18.4Q95.45-18.95 95.55-19.45 95.65-19.95 95.65-20.45L95.65-20.45 95.65-34.2Q95.65-35.15 96.07-35.58 96.5-36 97.45-36L97.45-36 105.3-36Q106.25-36 106.67-35.58 107.1-35.15 107.1-34.2L107.1-34.2 107.1-21Q107.1-19.8 107.02-18.98 106.95-18.15 106.75-17.4 106.55-16.65 106.25-15.83 105.95-15 105.5-13.9L105.5-13.9 100.6-1.65Q100.25-0.7 99.62-0.35 99 0 98.05 0ZM82.15-31.5L81.65-31.5 81.65-20.7Q81.65-19.3 81.82-18.13 82-16.95 82.45-15.85L82.45-15.85 85.75-7.85Q86.35-6.4 87.1-5.45 87.85-4.5 89.4-4.5L89.4-4.5 93.8-4.5Q95.35-4.5 96.1-5.45 96.85-6.4 97.45-7.85L97.45-7.85 100.75-15.85Q101.2-16.95 101.37-18.13 101.55-19.3 101.55-20.7L101.55-20.7 101.55-31.5 101.05-31.5 101.05-20.7Q101.05-19.4 100.85-18.23 100.65-17.05 100.25-16.05L100.25-16.05 96.95-8.05Q96.45-6.75 95.82-5.88 95.2-5 93.8-5L93.8-5 89.4-5Q88-5 87.37-5.88 86.75-6.75 86.25-8.05L86.25-8.05 82.95-16.05Q82.55-17.05 82.35-18.23 82.15-19.4 82.15-20.7L82.15-20.7 82.15-31.5ZM135.54 0L114.24 0Q113.29 0 112.87-0.43 112.44-0.85 112.44-1.8L112.44-1.8 112.44-7.75Q112.44-8.7 112.87-9.13 113.29-9.55 114.24-9.55L114.24-9.55 119.19-9.55 119.19-26.35 114.24-26.35Q113.29-26.35 112.87-26.78 112.44-27.2 112.44-28.15L112.44-28.15 112.44-34.2Q112.44-35.15 112.87-35.58 113.29-36 114.24-36L114.24-36 135.54-36Q136.49-36 136.92-35.58 137.34-35.15 137.34-34.2L137.34-34.2 137.34-28.15Q137.34-27.2 136.92-26.78 136.49-26.35 135.54-26.35L135.54-26.35 130.69-26.35 130.69-9.55 135.54-9.55Q136.49-9.55 136.92-9.13 137.34-8.7 137.34-7.75L137.34-7.75 137.34-1.8Q137.34-0.85 136.92-0.43 136.49 0 135.54 0L135.54 0ZM116.94-4.5L132.84-4.5 132.84-5 125.19-5 125.19-31 132.84-31 132.84-31.5 116.94-31.5 116.94-31 124.69-31 124.69-5 116.94-5 116.94-4.5ZM149.39-31L160.29-31Q162.94-31 164.22-29.55 165.49-28.1 165.49-25.8L165.49-25.8 165.49-22.3Q165.49-19.55 164.44-18.05 163.39-16.55 160.29-16.55L160.29-16.55 149.39-16.55 149.39-31ZM158.54-27L154.79-27 154.79-20.6 158.54-20.6Q159.84-20.6 160.29-21.28 160.74-21.95 160.74-22.95L160.74-22.95 160.74-24.65Q160.74-25.65 160.29-26.33 159.84-27 158.54-27L158.54-27ZM148.89-4.5L149.39-4.5 149.39-16.1 163.54-16.1Q166.39-16.1 167.74-14.88 169.09-13.65 169.09-11.2L169.09-11.2 169.09-4.5 169.59-4.5 169.59-11.2Q169.59-13.8 168.09-15.18 166.59-16.55 163.54-16.55L163.54-16.55 162.99-16.55Q164.79-17.1 165.39-18.57 165.99-20.05 165.99-22.35L165.99-22.35 165.99-25.8Q165.99-28.25 164.59-29.88 163.19-31.5 160.29-31.5L160.29-31.5 148.89-31.5 148.89-4.5ZM152.99 0L152.99 0 145.29 0Q144.34 0 143.92-0.43 143.49-0.85 143.49-1.8L143.49-1.8 143.49-34.2Q143.49-35.15 143.92-35.58 144.34-36 145.29-36L145.29-36 161.94-36Q167.54-36 169.67-33.68 171.79-31.35 171.79-27.65L171.79-27.65 171.79-25.35Q171.79-23.25 171.17-21.78 170.54-20.3 168.99-19.65L168.99-19.65Q171.69-19.35 173.37-17.45 175.04-15.55 175.04-12.4L175.04-12.4 175.04-1.8Q175.04-0.85 174.62-0.43 174.19 0 173.24 0L173.24 0 165.49 0Q164.54 0 164.12-0.43 163.69-0.85 163.69-1.8L163.69-1.8 163.69-9.45Q163.69-10.55 163.27-11.08 162.84-11.6 161.79-11.6L161.79-11.6 154.79-11.6 154.79-1.8Q154.79-0.85 154.37-0.43 153.94 0 152.99 0ZM185.69-13.6L185.69-15.15Q185.69-16.5 185.91-17.65 186.14-18.8 186.49-19.8L186.49-19.8 189.69-28Q190.19-29.25 190.79-30.13 191.39-31 192.89-31L192.89-31 197.79-31Q199.19-31 199.79-30.13 200.39-29.25 200.94-27.95L200.94-27.95 204.39-19.8Q204.74-18.8 204.96-17.65 205.19-16.5 205.19-15.15L205.19-15.15 205.19-13.6 185.69-13.6ZM193.69-25.5L193.69-25.5 191.34-17.9 199.19-17.9 196.84-25.5Q196.64-25.95 196.41-26.15 196.19-26.35 195.89-26.35L195.89-26.35 194.64-26.35Q194.34-26.35 194.11-26.15 193.89-25.95 193.69-25.5ZM205.19-13.1L205.19-4.5 205.69-4.5 205.69-15.15Q205.69-16.55 205.46-17.73 205.24-18.9 204.84-20L204.84-20 201.39-28.15Q200.79-29.6 200.11-30.55 199.44-31.5 197.79-31.5L197.79-31.5 192.89-31.5Q191.19-31.5 190.49-30.55 189.79-29.6 189.24-28.2L189.24-28.2 186.04-20Q185.64-18.9 185.41-17.73 185.19-16.55 185.19-15.15L185.19-15.15 185.19-4.5 185.69-4.5 185.69-13.1 205.19-13.1ZM190.84-8.8L190.84-1.8Q190.84-0.85 190.41-0.43 189.99 0 189.04 0L189.04 0 181.69 0Q180.74 0 180.31-0.43 179.89-0.85 179.89-1.8L179.89-1.8 179.89-15Q179.89-16.5 180.36-18.45 180.84-20.4 181.84-23L181.84-23 186.19-34.35Q186.49-35.2 187.11-35.6 187.74-36 188.74-36L188.74-36 202.19-36Q203.14-36 203.76-35.6 204.39-35.2 204.69-34.35L204.69-34.35 209.04-23Q210.04-20.4 210.51-18.45 210.99-16.5 210.99-15L210.99-15 210.99-1.8Q210.99-0.85 210.56-0.43 210.14 0 209.19 0L209.19 0 201.64 0Q200.64 0 200.16-0.43 199.69-0.85 199.69-1.8L199.69-1.8 199.69-8.8 190.84-8.8ZM244.89-34.2L244.89-9.45Q244.89-7.15 244.24-5.28 243.59-3.4 241.96-2.08 240.34-0.75 237.49 0 234.64 0.75 230.24 0.75L230.24 0.75Q225.89 0.75 223.06 0 220.24-0.75 218.61-2.08 216.99-3.4 216.36-5.28 215.74-7.15 215.74-9.45L215.74-9.45 215.74-17.55Q215.74-18.5 216.16-18.93 216.59-19.35 217.54-19.35L217.54-19.35 224.79-19.35Q225.74-19.35 226.16-18.93 226.59-18.5 226.59-17.55L226.59-17.55 226.59-11.45Q226.59-10.45 227.21-9.78 227.84-9.1 230.14-9.1L230.14-9.1Q232.29-9.1 232.86-9.78 233.44-10.45 233.44-11.45L233.44-11.45 233.44-34.2Q233.44-35.15 233.86-35.58 234.29-36 235.24-36L235.24-36 243.09-36Q244.04-36 244.46-35.58 244.89-35.15 244.89-34.2L244.89-34.2ZM239.39-31.5L238.89-31.5 238.89-10.65Q238.89-7.85 237.09-6.13 235.29-4.4 230.34-4.4L230.34-4.4Q225.19-4.4 223.31-6.1 221.44-7.8 221.44-10.65L221.44-10.65 221.44-14.6 220.94-14.6 220.94-10.65Q220.94-9.15 221.36-7.9 221.79-6.65 222.84-5.78 223.89-4.9 225.71-4.4 227.54-3.9 230.34-3.9L230.34-3.9Q235.64-3.9 237.51-5.8 239.39-7.7 239.39-10.65L239.39-10.65 239.39-31.5Z" opacity="1" transform="matrix(1,0,0,1,0,0)" fill="#ffffff" class="wordmark-text-0" data-fill-palette-color="primary" id="text-0"></path></svg></g></svg></g></svg></g></svg></g><g transform="matrix(1,0,0,1,119.48770910934324,0)"><svg viewBox="0 0 158.52218178131344 83.19680066266308" height="83.19680066266308" width="158.52218178131344"><g><svg xmlns="http://www.w3.org/2000/svg" xmlns:xlink="http://www.w3.org/1999/xlink" version="1.1" x="0" y="0" viewBox="5 26.382 90.001 47.235" enable-background="new 0 0 100 100" xml:space="preserve" height="83.19680066266308" width="158.52218178131344" class="icon-icon-0" data-fill-palette-color="accent" id="icon-0"><path fill="none" d="M50.482 28.475C50.452 28.505 50.411 28.523 50.376 28.547 50.411 28.522 50.452 28.505 50.482 28.475"></path><path fill="none" d="M50.628 28.259C50.607 28.311 50.568 28.352 50.535 28.397 50.568 28.352 50.606 28.311 50.628 28.259"></path><path fill="none" d="M50.553 27.618C50.578 27.655 50.611 27.687 50.628 27.729 50.61 27.688 50.578 27.655 50.553 27.618"></path><path fill="none" d="M50.266 28.621"></path><path fill="none" d="M50.001 28.674A0.68 0.68 0 1 1 50.001 27.314 0.68 0.68 0 0 1 50.001 28.674"></path><path fill="none" d="M50.001 27.314"></path><path fill="none" d="M50.376 27.442C50.412 27.466 50.452 27.483 50.482 27.513 50.452 27.483 50.412 27.466 50.376 27.442"></path><path fill="none" d="M54.305 70.684"></path><path d="M86.63 69.109C86.738 68.882 86.807 68.631 86.807 68.363V28.107C86.807 27.154 86.035 26.382 85.08 26.382H14.92C13.967 26.382 13.196 27.154 13.196 28.107V68.363C13.196 68.632 13.262 68.883 13.372 69.109H5V71.892C5 72.845 5.773 73.617 6.726 73.617H93.275C94.228 73.617 95.001 72.846 95.001 71.892V69.109zM50.001 27.314C50.095 27.314 50.184 27.333 50.266 27.367 50.308 27.385 50.34 27.416 50.376 27.442 50.412 27.466 50.452 27.483 50.482 27.513S50.529 27.583 50.553 27.618C50.578 27.655 50.611 27.687 50.628 27.729A0.7 0.7 0 0 1 50.628 28.259C50.607 28.311 50.568 28.352 50.535 28.397 50.515 28.422 50.504 28.453 50.482 28.475 50.452 28.505 50.411 28.523 50.376 28.547 50.339 28.572 50.307 28.604 50.266 28.621A0.68 0.68 0 1 1 50.001 27.314M16.143 29.708H83.857V66.279H16.143zM54.305 72.046H45.697A0.681 0.681 0 0 1 45.697 70.683H54.305A0.68 0.68 0 0 1 54.305 72.046" fill="#81ffd9" data-fill-palette-color="accent"></path><polygon points="25.039,48.313 25.039,49.536 25.039,49.537 44.878,49.537 44.878,49.536 44.878,48.313 44.878,48.312   25.039,48.312 " fill="#81ffd9" data-fill-palette-color="accent"></polygon><rect x="36.633" y="58.613" width="3.488" height="1.225" fill="#81ffd9" data-fill-palette-color="accent"></rect><rect x="46.552" y="48.313" width="3.488" height="1.224" fill="#81ffd9" data-fill-palette-color="accent"></rect><rect x="39.377" y="46.296" width="3.488" height="1.224" fill="#81ffd9" data-fill-palette-color="accent"></rect><rect x="20.692" y="31.829" width="3.489" height="1.224" fill="#81ffd9" data-fill-palette-color="accent"></rect><rect x="20.692" y="42.131" width="3.489" height="1.224" fill="#81ffd9" data-fill-palette-color="accent"></rect><rect x="20.692" y="46.296" width="3.489" height="1.224" fill="#81ffd9" data-fill-palette-color="accent"></rect><rect x="20.692" y="48.313" width="3.489" height="1.224" fill="#81ffd9" data-fill-palette-color="accent"></rect><rect x="20.692" y="44.191" width="5.832" height="1.224" fill="#81ffd9" data-fill-palette-color="accent"></rect><rect x="25.039" y="46.296" width="12.665" height="1.224" fill="#81ffd9" data-fill-palette-color="accent"></rect><rect x="20.692" y="50.373" width="3.489" height="1.223" fill="#81ffd9" data-fill-palette-color="accent"></rect><rect x="20.692" y="54.494" width="3.489" height="1.223" fill="#81ffd9" data-fill-palette-color="accent"></rect><rect x="53.637" y="50.373" width="3.488" height="1.223" fill="#81ffd9" data-fill-palette-color="accent"></rect><rect x="25.039" y="50.373" width="27.761" height="1.223" fill="#81ffd9" data-fill-palette-color="accent"></rect><rect x="20.692" y="52.434" width="27.792" height="1.223" fill="#81ffd9" data-fill-palette-color="accent"></rect><rect x="25.039" y="54.494" width="23.444" height="1.223" fill="#81ffd9" data-fill-palette-color="accent"></rect><rect x="20.692" y="56.555" width="17.012" height="1.223" fill="#81ffd9" data-fill-palette-color="accent"></rect><rect x="20.692" y="58.613" width="14.267" height="1.225" fill="#81ffd9" data-fill-palette-color="accent"></rect><rect x="20.692" y="60.674" width="7.134" height="1.225" fill="#81ffd9" data-fill-palette-color="accent"></rect><rect x="20.692" y="62.736" width="5.832" height="1.223" fill="#81ffd9" data-fill-palette-color="accent"></rect><rect x="20.692" y="33.89" width="8.694" height="1.224" fill="#81ffd9" data-fill-palette-color="accent"></rect><rect x="20.692" y="35.95" width="11.594" height="1.224" fill="#81ffd9" data-fill-palette-color="accent"></rect><rect x="20.692" y="38.01" width="8.694" height="1.224" fill="#81ffd9" data-fill-palette-color="accent"></rect><rect x="20.692" y="40.071" width="8.694" height="1.224" fill="#81ffd9" data-fill-palette-color="accent"></rect><rect x="18.798" y="31.829" width="1.058" height="1.224" fill="#81ffd9" data-fill-palette-color="accent"></rect><rect x="18.798" y="33.89" width="1.058" height="1.224" fill="#81ffd9" data-fill-palette-color="accent"></rect><rect x="18.798" y="35.95" width="1.058" height="1.224" fill="#81ffd9" data-fill-palette-color="accent"></rect><rect x="18.798" y="38.01" width="1.058" height="1.224" fill="#81ffd9" data-fill-palette-color="accent"></rect><rect x="18.798" y="40.071" width="1.058" height="1.224" fill="#81ffd9" data-fill-palette-color="accent"></rect><rect x="18.798" y="42.131" width="1.058" height="1.224" fill="#81ffd9" data-fill-palette-color="accent"></rect><rect x="18.798" y="44.191" width="1.058" height="1.224" fill="#81ffd9" data-fill-palette-color="accent"></rect><rect x="18.798" y="46.252" width="1.058" height="1.224" fill="#81ffd9" data-fill-palette-color="accent"></rect><rect x="18.798" y="48.313" width="1.058" height="1.224" fill="#81ffd9" data-fill-palette-color="accent"></rect><rect x="18.798" y="50.373" width="1.058" height="1.223" fill="#81ffd9" data-fill-palette-color="accent"></rect><rect x="18.798" y="52.434" width="1.058" height="1.223" fill="#81ffd9" data-fill-palette-color="accent"></rect><rect x="18.798" y="54.494" width="1.058" height="1.223" fill="#81ffd9" data-fill-palette-color="accent"></rect><rect x="18.798" y="56.555" width="1.058" height="1.223" fill="#81ffd9" data-fill-palette-color="accent"></rect><rect x="18.798" y="58.613" width="1.058" height="1.225" fill="#81ffd9" data-fill-palette-color="accent"></rect><rect x="18.798" y="60.674" width="1.058" height="1.225" fill="#81ffd9" data-fill-palette-color="accent"></rect><rect x="18.798" y="62.736" width="1.058" height="1.223" fill="#81ffd9" data-fill-palette-color="accent"></rect></svg></g></svg></g><g></g></svg></g><defs></defs></svg><rect width="395.52" height="188.84034649277137" fill="none" stroke="none" visibility="hidden"></rect></g></svg></g></svg>