<svg xmlns="http://www.w3.org/2000/svg" version="1.1" xmlns:xlink="http://www.w3.org/1999/xlink" xmlns:svgjs="http://svgjs.dev/svgjs" width="1500" height="1505" viewBox="0 0 1500 1505"><g transform="matrix(1,0,0,1,0,-2.6768281712074895)"><svg viewBox="0 0 280 281" data-background-color="#051726" preserveAspectRatio="xMidYMid meet" height="1505" width="1500" xmlns="http://www.w3.org/2000/svg" xmlns:xlink="http://www.w3.org/1999/xlink"><g id="tight-bounds" transform="matrix(1,0,0,1,0,0.5000363903500613)"><svg viewBox="0 0 280 280" height="280" width="280"><g><svg viewBox="0 0 280 280" height="280" width="280"><g><svg viewBox="0 0 280 280" height="280" width="280"><g id="textblocktransform"><svg viewBox="0 0 280 280" height="280" width="280" id="textblock"><g><svg viewBox="0 0 280 280" height="280" width="280"><g transform="matrix(1,0,0,1,57.50420886156945,57.50420886156945)"><svg viewBox="0 0 164.9915822768611 164.9915822768611" height="164.9915822768611" width="164.9915822768611"><g id="icon-0"><circle r="82" cx="82.49579113843055" cy="82.49579113843055" fill="#81ffd9" data-fill-palette-color="accent"></circle><svg xmlns="http://www.w3.org/2000/svg" xmlns:xlink="http://www.w3.org/1999/xlink" version="1.1" x="24.74873734152917" y="24.748737341529164" viewBox="5 26.382 90.001 47.235" enable-background="new 0 0 100 100" xml:space="preserve" height="115.49410759380275" width="115.49410759380275" class="icon-jxe-0" data-fill-palette-color="quaternary" id="jxe-0"><path fill="none" d="M50.482 28.475C50.452 28.505 50.411 28.523 50.376 28.547 50.411 28.522 50.452 28.505 50.482 28.475"></path><path fill="none" d="M50.628 28.259C50.607 28.311 50.568 28.352 50.535 28.397 50.568 28.352 50.606 28.311 50.628 28.259"></path><path fill="none" d="M50.553 27.618C50.578 27.655 50.611 27.687 50.628 27.729 50.61 27.688 50.578 27.655 50.553 27.618"></path><path fill="none" d="M50.266 28.621"></path><path fill="none" d="M50.001 28.674A0.68 0.68 0 1 1 50.001 27.314 0.68 0.68 0 0 1 50.001 28.674"></path><path fill="none" d="M50.001 27.314"></path><path fill="none" d="M50.376 27.442C50.412 27.466 50.452 27.483 50.482 27.513 50.452 27.483 50.412 27.466 50.376 27.442"></path><path fill="none" d="M54.305 70.684"></path><path d="M86.63 69.109C86.738 68.882 86.807 68.631 86.807 68.363V28.107C86.807 27.154 86.035 26.382 85.08 26.382H14.92C13.967 26.382 13.196 27.154 13.196 28.107V68.363C13.196 68.632 13.262 68.883 13.372 69.109H5V71.892C5 72.845 5.773 73.617 6.726 73.617H93.275C94.228 73.617 95.001 72.846 95.001 71.892V69.109zM50.001 27.314C50.095 27.314 50.184 27.333 50.266 27.367 50.308 27.385 50.34 27.416 50.376 27.442 50.412 27.466 50.452 27.483 50.482 27.513S50.529 27.583 50.553 27.618C50.578 27.655 50.611 27.687 50.628 27.729A0.7 0.7 0 0 1 50.628 28.259C50.607 28.311 50.568 28.352 50.535 28.397 50.515 28.422 50.504 28.453 50.482 28.475 50.452 28.505 50.411 28.523 50.376 28.547 50.339 28.572 50.307 28.604 50.266 28.621A0.68 0.68 0 1 1 50.001 27.314M16.143 29.708H83.857V66.279H16.143zM54.305 72.046H45.697A0.681 0.681 0 0 1 45.697 70.683H54.305A0.68 0.68 0 0 1 54.305 72.046" fill="#051726" data-fill-palette-color="quaternary"></path><polygon points="25.039,48.313 25.039,49.536 25.039,49.537 44.878,49.537 44.878,49.536 44.878,48.313 44.878,48.312   25.039,48.312 " fill="#051726" data-fill-palette-color="quaternary"></polygon><rect x="36.633" y="58.613" width="3.488" height="1.225" fill="#051726" data-fill-palette-color="quaternary"></rect><rect x="46.552" y="48.313" width="3.488" height="1.224" fill="#051726" data-fill-palette-color="quaternary"></rect><rect x="39.377" y="46.296" width="3.488" height="1.224" fill="#051726" data-fill-palette-color="quaternary"></rect><rect x="20.692" y="31.829" width="3.489" height="1.224" fill="#051726" data-fill-palette-color="quaternary"></rect><rect x="20.692" y="42.131" width="3.489" height="1.224" fill="#051726" data-fill-palette-color="quaternary"></rect><rect x="20.692" y="46.296" width="3.489" height="1.224" fill="#051726" data-fill-palette-color="quaternary"></rect><rect x="20.692" y="48.313" width="3.489" height="1.224" fill="#051726" data-fill-palette-color="quaternary"></rect><rect x="20.692" y="44.191" width="5.832" height="1.224" fill="#051726" data-fill-palette-color="quaternary"></rect><rect x="25.039" y="46.296" width="12.665" height="1.224" fill="#051726" data-fill-palette-color="quaternary"></rect><rect x="20.692" y="50.373" width="3.489" height="1.223" fill="#051726" data-fill-palette-color="quaternary"></rect><rect x="20.692" y="54.494" width="3.489" height="1.223" fill="#051726" data-fill-palette-color="quaternary"></rect><rect x="53.637" y="50.373" width="3.488" height="1.223" fill="#051726" data-fill-palette-color="quaternary"></rect><rect x="25.039" y="50.373" width="27.761" height="1.223" fill="#051726" data-fill-palette-color="quaternary"></rect><rect x="20.692" y="52.434" width="27.792" height="1.223" fill="#051726" data-fill-palette-color="quaternary"></rect><rect x="25.039" y="54.494" width="23.444" height="1.223" fill="#051726" data-fill-palette-color="quaternary"></rect><rect x="20.692" y="56.555" width="17.012" height="1.223" fill="#051726" data-fill-palette-color="quaternary"></rect><rect x="20.692" y="58.613" width="14.267" height="1.225" fill="#051726" data-fill-palette-color="quaternary"></rect><rect x="20.692" y="60.674" width="7.134" height="1.225" fill="#051726" data-fill-palette-color="quaternary"></rect><rect x="20.692" y="62.736" width="5.832" height="1.223" fill="#051726" data-fill-palette-color="quaternary"></rect><rect x="20.692" y="33.89" width="8.694" height="1.224" fill="#051726" data-fill-palette-color="quaternary"></rect><rect x="20.692" y="35.95" width="11.594" height="1.224" fill="#051726" data-fill-palette-color="quaternary"></rect><rect x="20.692" y="38.01" width="8.694" height="1.224" fill="#051726" data-fill-palette-color="quaternary"></rect><rect x="20.692" y="40.071" width="8.694" height="1.224" fill="#051726" data-fill-palette-color="quaternary"></rect><rect x="18.798" y="31.829" width="1.058" height="1.224" fill="#051726" data-fill-palette-color="quaternary"></rect><rect x="18.798" y="33.89" width="1.058" height="1.224" fill="#051726" data-fill-palette-color="quaternary"></rect><rect x="18.798" y="35.95" width="1.058" height="1.224" fill="#051726" data-fill-palette-color="quaternary"></rect><rect x="18.798" y="38.01" width="1.058" height="1.224" fill="#051726" data-fill-palette-color="quaternary"></rect><rect x="18.798" y="40.071" width="1.058" height="1.224" fill="#051726" data-fill-palette-color="quaternary"></rect><rect x="18.798" y="42.131" width="1.058" height="1.224" fill="#051726" data-fill-palette-color="quaternary"></rect><rect x="18.798" y="44.191" width="1.058" height="1.224" fill="#051726" data-fill-palette-color="quaternary"></rect><rect x="18.798" y="46.252" width="1.058" height="1.224" fill="#051726" data-fill-palette-color="quaternary"></rect><rect x="18.798" y="48.313" width="1.058" height="1.224" fill="#051726" data-fill-palette-color="quaternary"></rect><rect x="18.798" y="50.373" width="1.058" height="1.223" fill="#051726" data-fill-palette-color="quaternary"></rect><rect x="18.798" y="52.434" width="1.058" height="1.223" fill="#051726" data-fill-palette-color="quaternary"></rect><rect x="18.798" y="54.494" width="1.058" height="1.223" fill="#051726" data-fill-palette-color="quaternary"></rect><rect x="18.798" y="56.555" width="1.058" height="1.223" fill="#051726" data-fill-palette-color="quaternary"></rect><rect x="18.798" y="58.613" width="1.058" height="1.225" fill="#051726" data-fill-palette-color="quaternary"></rect><rect x="18.798" y="60.674" width="1.058" height="1.225" fill="#051726" data-fill-palette-color="quaternary"></rect><rect x="18.798" y="62.736" width="1.058" height="1.223" fill="#051726" data-fill-palette-color="quaternary"></rect></svg></g></svg></g><g id="text-0"><path d="M30.702 104.495l0.134-0.365-9.604-3.528 3.593-9.781c0.49-1.334 1.103-2.252 1.839-2.753 0.736-0.501 1.687-0.537 2.852-0.109v0l6.397 2.35 0.134-0.365-6.397-2.35c-1.266-0.465-2.31-0.434-3.132 0.092-0.829 0.523-1.515 1.524-2.058 3.001v0l-0.546 1.487-8.134-7.732-0.148 0.402 8.134 7.732-2.899 7.893-9.669-3.552-0.134 0.364zM35.071 102.714v0l-2.072 5.639c-0.169 0.461-0.395 0.757-0.676 0.887-0.281 0.13-0.653 0.111-1.114-0.059v0l-23.565-8.656c-0.461-0.169-0.757-0.395-0.888-0.676-0.13-0.281-0.111-0.653 0.059-1.114v0l2.071-5.639c0.169-0.461 0.395-0.757 0.677-0.887 0.281-0.13 0.653-0.111 1.114 0.059v0l8.36 3.071 0.536-1.459-7.099-6.853c-0.375-0.329-0.598-0.673-0.671-1.032-0.073-0.359-0.025-0.77 0.144-1.231v0l2.058-5.602c0.151-0.411 0.356-0.651 0.614-0.719 0.258-0.068 0.55 0.053 0.875 0.364v0l7.108 6.825c0.574-1.332 1.454-2.243 2.639-2.735 1.183-0.485 2.501-0.461 3.954 0.072v0l10.258 3.769c0.461 0.169 0.757 0.395 0.887 0.676 0.13 0.281 0.111 0.653-0.059 1.114v0l-2.057 5.601c-0.169 0.461-0.395 0.757-0.676 0.888-0.281 0.13-0.653 0.111-1.114-0.059v0l-7.089-2.604c-0.393-0.144-0.734-0.16-1.023-0.047-0.289 0.113-0.506 0.366-0.65 0.759v0l-1.762 4.797 8.332 3.061c0.461 0.169 0.757 0.395 0.888 0.676 0.13 0.281 0.111 0.653-0.059 1.114z" fill="#ffffff" data-fill-palette-color="primary"></path><path d="M48.488 58.962l-0.862-0.828c-0.503-0.483-0.929-0.975-1.278-1.475-0.348-0.491-0.647-0.98-0.896-1.468v0l-2.867-6.192c-0.285-0.633-0.483-1.219-0.592-1.756-0.114-0.533 0.098-1.08 0.636-1.641v0l2.629-2.737c0.501-0.522 1.023-0.739 1.565-0.652 0.537 0.092 1.147 0.268 1.829 0.526v0l6.412 2.442c0.498 0.229 0.999 0.508 1.503 0.836 0.514 0.328 1.022 0.733 1.526 1.216v0l0.862 0.828zM46.133 48.11v0l2.991 5.386 4.209-4.384-5.51-2.762c-0.237-0.089-0.435-0.127-0.594-0.115-0.15 0.012-0.28 0.076-0.391 0.191v0l-0.669 0.697c-0.106 0.11-0.164 0.243-0.175 0.398-0.002 0.155 0.045 0.351 0.139 0.589zM59.235 48.33l4.808 4.616 0.269-0.28-5.95-5.713c-0.522-0.501-1.045-0.921-1.569-1.258-0.514-0.337-1.049-0.629-1.603-0.876v0l-6.405-2.435c-0.753-0.299-1.429-0.492-2.026-0.579-0.594-0.091-1.187 0.172-1.781 0.79v0l-2.629 2.738c-0.607 0.632-0.86 1.25-0.759 1.855 0.106 0.599 0.321 1.252 0.646 1.959v0l2.859 6.185c0.269 0.544 0.583 1.066 0.941 1.566 0.358 0.509 0.798 1.015 1.32 1.517v0l5.95 5.713 0.27-0.28-4.808-4.617zM53.942 58.661l3.91 3.754c0.355 0.34 0.535 0.666 0.541 0.975 0.006 0.31-0.161 0.642-0.501 0.997v0l-3.947 4.11c-0.34 0.355-0.666 0.535-0.976 0.542-0.31 0.006-0.642-0.161-0.996-0.502v0l-7.38-7.086c-0.556-0.534-1.113-1.239-1.671-2.115-0.558-0.876-1.141-1.966-1.75-3.269v0l-4.013-8.522c-0.21-0.414-0.277-0.809-0.2-1.186 0.077-0.377 0.292-0.75 0.646-1.12v0l7.218-7.516c0.34-0.355 0.698-0.578 1.071-0.67 0.374-0.092 0.772-0.042 1.194 0.152v0l8.677 3.664c1.327 0.556 2.439 1.094 3.338 1.616 0.898 0.522 1.625 1.05 2.181 1.583v0l7.38 7.087c0.355 0.34 0.535 0.666 0.541 0.975 0.006 0.31-0.161 0.642-0.501 0.997v0l-4.05 4.218c-0.359 0.374-0.702 0.573-1.031 0.598-0.328 0.025-0.67-0.132-1.024-0.472v0l-3.909-3.754z" fill="#ffffff" data-fill-palette-color="primary"></path><path d="M103.166 34.238v0l-9.272 3.934c-0.452 0.192-0.863 0.269-1.233 0.231-0.364-0.041-0.724-0.252-1.081-0.634v0l-7.212-7.254c-0.437-0.435-0.809-0.818-1.115-1.15-0.307-0.332-0.584-0.654-0.833-0.967-0.245-0.322-0.468-0.671-0.671-1.046-0.203-0.376-0.425-0.848-0.666-1.417v0l-3.996-9.419c-0.192-0.452-0.23-0.822-0.114-1.109 0.116-0.287 0.4-0.527 0.853-0.719v0l5.668-2.405c0.452-0.192 0.841-0.238 1.165-0.137 0.324 0.101 0.582 0.377 0.774 0.829v0l4.175 9.841c0.101 0.238 0.227 0.467 0.377 0.684 0.15 0.218 0.327 0.439 0.53 0.663v0l3.795 4.277c0.175 0.207 0.326 0.334 0.454 0.381 0.132 0.038 0.292 0.017 0.481-0.064v0l0.395-0.167c0.19-0.08 0.313-0.18 0.371-0.298 0.062-0.127 0.075-0.324 0.041-0.591v0l-0.454-5.738c-0.014-0.304-0.047-0.586-0.099-0.846-0.058-0.257-0.138-0.504-0.239-0.742v0l-4.16-9.804c-0.192-0.452-0.23-0.822-0.113-1.11 0.116-0.287 0.4-0.527 0.853-0.719v0l5.603-2.377c0.452-0.192 0.822-0.23 1.11-0.114 0.287 0.116 0.527 0.4 0.719 0.853v0l3.996 9.419c0.241 0.569 0.427 1.056 0.556 1.463 0.129 0.407 0.225 0.81 0.286 1.209 0.053 0.396 0.092 0.82 0.117 1.271 0.019 0.454 0.033 0.989 0.042 1.605v0l0.214 10.223c0.027 0.522-0.071 0.929-0.294 1.218-0.23 0.292-0.571 0.534-1.023 0.726zM82.288 16.582l-0.358 0.152 3.269 7.704c0.283 0.666 0.585 1.26 0.906 1.78 0.324 0.526 0.704 1.004 1.138 1.432v0l4.768 4.708c0.58 0.569 1.144 1.004 1.691 1.307 0.553 0.299 1.196 0.293 1.93-0.018v0l3.136-1.331c0.74-0.314 1.191-0.772 1.354-1.375 0.169-0.605 0.247-1.313 0.235-2.123v0l-0.063-6.705c-0.007-0.61-0.086-1.215-0.239-1.814-0.157-0.59-0.376-1.218-0.659-1.885v0l-3.269-7.703-0.358 0.151 3.269 7.704c0.262 0.618 0.465 1.224 0.609 1.819 0.141 0.604 0.218 1.185 0.231 1.742v0l0.063 6.705c0.03 0.716-0.017 1.346-0.14 1.888-0.123 0.543-0.518 0.956-1.185 1.239v0l-3.136 1.33c-0.666 0.283-1.235 0.279-1.705-0.012-0.476-0.289-0.964-0.691-1.464-1.208v0l-4.768-4.708c-0.398-0.394-0.762-0.853-1.093-1.376-0.334-0.515-0.632-1.081-0.894-1.699v0z" fill="#ffffff" data-fill-palette-color="primary"></path><path d="M148.834 27.893l-16.506 0.208c-0.491 0.006-0.848-0.099-1.07-0.315-0.222-0.216-0.336-0.57-0.342-1.062v0l-0.058-4.612c-0.006-0.491 0.099-0.848 0.315-1.07 0.216-0.222 0.57-0.336 1.062-0.342v0l3.835-0.049-0.165-13.01-3.835 0.049c-0.491 0.006-0.848-0.099-1.07-0.315-0.222-0.223-0.336-0.577-0.342-1.062v0l-0.059-4.692c-0.006-0.491 0.099-0.848 0.315-1.07 0.216-0.222 0.57-0.336 1.062-0.342v0l16.506-0.209c0.491-0.006 0.848 0.099 1.07 0.316 0.222 0.216 0.336 0.57 0.342 1.061v0l0.06 4.692c0.006 0.485-0.099 0.841-0.316 1.07-0.216 0.222-0.57 0.336-1.061 0.342v0l-3.756 0.048 0.164 13.01 3.756-0.048c0.491-0.006 0.848 0.099 1.07 0.316 0.222 0.216 0.336 0.57 0.342 1.061v0l0.058 4.613c0.006 0.491-0.099 0.848-0.315 1.07-0.216 0.222-0.57 0.336-1.062 0.342zM134.376 24.588l12.322-0.155-0.005-0.389-5.927 0.075-0.254-20.142 5.927-0.075-0.005-0.389-12.322 0.156 0.005 0.388 6.007-0.076 0.254 20.143-6.007 0.076z" fill="#ffffff" data-fill-palette-color="primary"></path><path d="M185 11.867l7.855 3.11c1.272 0.504 2.076 1.225 2.411 2.166 0.338 0.934 0.287 1.953-0.151 3.058v0l-1.001 2.529c-0.521 1.315-1.174 2.235-1.96 2.759-0.792 0.522-1.933 0.488-3.421-0.1v0l-7.855-3.111zM190.455 17.359l-2.705-1.071-1.827 4.613 2.705 1.071c0.624 0.247 1.108 0.25 1.454 0.008 0.343-0.236 0.61-0.594 0.801-1.076v0l0.484-1.223c0.191-0.482 0.243-0.929 0.157-1.341-0.089-0.407-0.445-0.734-1.069-0.981zM177.08 30.815l0.361 0.143 3.308-8.355 10.199 4.038c1.365 0.54 2.255 1.232 2.671 2.075 0.416 0.843 0.391 1.855-0.076 3.034v0l-1.911 4.826 0.361 0.143 1.911-4.825c0.494-1.247 0.513-2.343 0.059-3.288-0.461-0.947-1.423-1.71-2.887-2.29v0l-0.398-0.157c0.97 0.077 1.74-0.182 2.311-0.778 0.563-0.592 1.063-1.44 1.501-2.545v0l0.987-2.492c0.465-1.173 0.516-2.285 0.153-3.336-0.359-1.042-1.236-1.839-2.632-2.392v0l-8.216-3.253zM178.751 35.226v0l-5.548-2.196c-0.457-0.181-0.747-0.414-0.87-0.699-0.123-0.284-0.094-0.655 0.086-1.112v0l9.243-23.342c0.181-0.457 0.414-0.747 0.698-0.87 0.284-0.123 0.655-0.094 1.112 0.087v0l11.995 4.749c2.692 1.066 4.327 2.36 4.903 3.881 0.576 1.521 0.514 3.168-0.188 4.94v0l-0.656 1.658c-0.401 1.013-0.889 1.812-1.464 2.399-0.584 0.59-1.308 0.896-2.175 0.918v0c1.241 0.655 2.081 1.599 2.523 2.831 0.441 1.232 0.362 2.604-0.238 4.117v0l-3.022 7.633c-0.181 0.457-0.414 0.747-0.698 0.87-0.284 0.123-0.655 0.094-1.112-0.087v0l-5.585-2.212c-0.451-0.178-0.738-0.41-0.861-0.694-0.129-0.287-0.103-0.659 0.077-1.116v0l2.182-5.511c0.21-0.531 0.262-0.96 0.157-1.288-0.104-0.334-0.405-0.6-0.906-0.798v0l-5.048-1.999-2.795 7.058c-0.181 0.457-0.414 0.747-0.698 0.87-0.284 0.123-0.655 0.094-1.112-0.087z" fill="#ffffff" data-fill-palette-color="primary"></path><path d="M222.174 49.569l0.847-0.844c0.494-0.492 0.995-0.907 1.503-1.244 0.498-0.337 0.994-0.625 1.488-0.864v0l6.253-2.729c0.639-0.271 1.229-0.456 1.769-0.554 0.536-0.102 1.078 0.122 1.626 0.672v0l2.679 2.689c0.511 0.513 0.717 1.039 0.617 1.579-0.104 0.535-0.293 1.141-0.566 1.816v0l-2.583 6.357c-0.24 0.493-0.53 0.988-0.869 1.485-0.339 0.507-0.756 1.006-1.249 1.498v0l-0.847 0.844zM233.076 47.454v0l-5.451 2.871 4.29 4.305 2.884-5.448c0.094-0.235 0.137-0.432 0.127-0.591-0.009-0.15-0.07-0.282-0.182-0.395v0l-0.682-0.684c-0.108-0.108-0.239-0.169-0.394-0.184-0.155-0.005-0.352 0.037-0.592 0.126zM232.566 60.548l-4.721 4.705 0.275 0.275 5.843-5.823c0.513-0.511 0.943-1.024 1.292-1.54 0.348-0.507 0.652-1.034 0.911-1.583v0l2.576-6.35c0.316-0.746 0.524-1.417 0.623-2.014 0.104-0.592-0.146-1.191-0.751-1.797v0l-2.679-2.689c-0.619-0.621-1.231-0.887-1.837-0.799-0.601 0.093-1.259 0.294-1.973 0.602v0l-6.247 2.722c-0.55 0.257-1.079 0.559-1.586 0.906-0.517 0.347-1.032 0.775-1.545 1.287v0l-5.843 5.822 0.274 0.275 4.721-4.704zM222.355 55.029l-3.839 3.825c-0.348 0.347-0.677 0.52-0.987 0.52-0.31-0.001-0.638-0.175-0.986-0.523v0l-4.022-4.037c-0.347-0.348-0.52-0.677-0.52-0.987 0.001-0.31 0.175-0.638 0.523-0.985v0l7.248-7.222c0.546-0.544 1.263-1.085 2.151-1.624 0.889-0.539 1.991-1.098 3.307-1.678v0l8.608-3.824c0.418-0.201 0.815-0.259 1.191-0.174 0.376 0.085 0.744 0.309 1.105 0.671v0l7.355 7.382c0.347 0.348 0.562 0.71 0.647 1.086 0.084 0.376 0.024 0.773-0.179 1.19v0l-3.854 8.595c-0.585 1.314-1.148 2.414-1.69 3.301-0.542 0.887-1.085 1.602-1.631 2.145v0l-7.247 7.222c-0.348 0.347-0.677 0.52-0.987 0.52-0.31-0.001-0.638-0.175-0.985-0.523v0l-4.128-4.143c-0.366-0.367-0.558-0.715-0.576-1.043-0.018-0.329 0.147-0.667 0.495-1.014v0l3.839-3.825z" fill="#ffffff" data-fill-palette-color="primary"></path><path d="M272.389 99.895l-17.794 7.152c-1.103 0.443-2.168 0.689-3.193 0.736-1.024 0.054-2.01-0.183-2.959-0.711-0.947-0.521-1.874-1.394-2.782-2.618-0.907-1.224-1.785-2.89-2.632-4.998v0c-0.837-2.083-1.35-3.874-1.537-5.373-0.188-1.499-0.12-2.765 0.203-3.797 0.323-1.032 0.873-1.879 1.651-2.543 0.778-0.664 1.719-1.217 2.822-1.66v0l5.824-2.341c0.456-0.183 0.828-0.211 1.115-0.083 0.285 0.122 0.518 0.407 0.699 0.857v0l2.096 5.213c0.183 0.456 0.214 0.827 0.092 1.112-0.122 0.285-0.41 0.519-0.866 0.702v0l-4.382 1.762c-0.481 0.193-0.824 0.506-1.028 0.939-0.199 0.431-0.078 1.195 0.362 2.292v0c0.416 1.035 0.839 1.624 1.269 1.766 0.438 0.146 0.897 0.122 1.378-0.07v0l16.352-6.573c0.456-0.183 0.827-0.214 1.111-0.093 0.285 0.122 0.519 0.41 0.703 0.866v0l2.27 5.648c0.183 0.456 0.214 0.827 0.093 1.112-0.122 0.285-0.41 0.519-0.867 0.703zM268.858 96.719l-0.145-0.361-14.993 6.027c-1.337 0.538-2.595 0.542-3.774 0.014-1.173-0.531-2.236-1.982-3.189-4.355v0c-0.993-2.471-1.263-4.317-0.809-5.538 0.458-1.229 1.368-2.117 2.73-2.665v0l2.847-1.144-0.145-0.361-2.847 1.145c-0.715 0.287-1.333 0.654-1.856 1.1-0.516 0.444-0.882 1.002-1.098 1.676-0.218 0.668-0.272 1.487-0.16 2.459 0.111 0.972 0.437 2.129 0.977 3.473v0c1.021 2.539 2.168 4.075 3.442 4.608 1.274 0.533 2.616 0.516 4.027-0.052v0z" fill="#ffffff" data-fill-palette-color="primary"></path><path d="M11.203 140c0-1.766 1.431-3.197 3.196-3.197 1.766 0 3.197 1.431 3.197 3.197 0 1.766-1.431 3.197-3.197 3.197-1.766 0-3.197-1.431-3.196-3.197z" fill="#ffffff" data-fill-palette-color="primary"></path><path d="M262.26 140c0-1.766 1.431-3.197 3.197-3.197 1.766 0 3.197 1.431 3.196 3.197 0 1.766-1.431 3.197-3.196 3.197-1.766 0-3.197-1.431-3.197-3.197z" fill="#ffffff" data-fill-palette-color="primary"></path></g><g id="text-1"><path d="M51.67 243.613l0.304 0.242 6.369-8.008 8.155 6.487c1.112 0.885 1.791 1.755 2.035 2.611 0.244 0.856-0.02 1.77-0.793 2.742v0l-4.242 5.333 0.304 0.242 4.242-5.333c0.839-1.055 1.139-2.056 0.898-3.002-0.236-0.952-0.97-1.917-2.202-2.897v0l-1.239-0.986 9.897-5.291-0.335-0.266-9.898 5.29-6.58-5.234 6.412-8.062-0.304-0.242zM51.987 248.32v0l-4.702-3.74c-0.385-0.306-0.595-0.613-0.629-0.92-0.035-0.308 0.1-0.654 0.406-1.039v0l15.627-19.649c0.306-0.385 0.613-0.595 0.921-0.629 0.308-0.035 0.654 0.1 1.039 0.406v0l4.702 3.739c0.385 0.306 0.595 0.613 0.629 0.921 0.035 0.308-0.1 0.654-0.406 1.039v0l-5.544 6.971 1.216 0.967 8.737-4.584c0.43-0.252 0.827-0.357 1.191-0.313 0.364 0.044 0.739 0.218 1.124 0.525v0l4.67 3.714c0.343 0.273 0.506 0.543 0.489 0.81-0.017 0.267-0.224 0.505-0.62 0.715v0l-8.714 4.603c1.084 0.964 1.672 2.085 1.766 3.365 0.089 1.276-0.349 2.519-1.312 3.73v0l-6.803 8.553c-0.306 0.385-0.613 0.595-0.92 0.63-0.308 0.035-0.654-0.1-1.039-0.407v0l-4.671-3.714c-0.385-0.306-0.595-0.613-0.629-0.921-0.035-0.308 0.1-0.654 0.406-1.039v0l4.701-5.91c0.26-0.327 0.382-0.646 0.366-0.957-0.016-0.31-0.188-0.595-0.516-0.855v0l-4-3.182-5.525 6.947c-0.306 0.385-0.613 0.595-0.921 0.63-0.308 0.035-0.654-0.1-1.039-0.406z" fill="#ffffff" data-fill-palette-color="primary"></path><path d="M80.208 254.527l0.51-1.081c0.298-0.631 0.628-1.191 0.992-1.68 0.355-0.486 0.723-0.925 1.107-1.318v0l4.957-4.688c0.509-0.472 1.002-0.845 1.476-1.12 0.469-0.278 1.055-0.251 1.758 0.081v0l3.432 1.62c0.655 0.309 1.027 0.735 1.116 1.277 0.083 0.539 0.111 1.173 0.083 1.901v0l-0.274 6.855c-0.059 0.545-0.164 1.109-0.314 1.692-0.147 0.592-0.37 1.203-0.667 1.833v0l-0.511 1.081zM89.746 248.84v0l-4.154 4.55 5.495 2.595 0.866-6.103c0.009-0.253-0.018-0.453-0.08-0.6-0.06-0.138-0.161-0.241-0.306-0.309v0l-0.874-0.413c-0.138-0.065-0.283-0.078-0.433-0.039-0.147 0.048-0.319 0.154-0.514 0.319zM93.707 261.332l-2.846 6.026 0.352 0.166 3.522-7.459c0.309-0.655 0.54-1.284 0.693-1.887 0.156-0.595 0.263-1.194 0.321-1.799v0l0.269-6.847c0.044-0.809 0.012-1.511-0.096-2.105-0.102-0.592-0.541-1.071-1.316-1.437v0l-3.432-1.621c-0.793-0.374-1.459-0.417-1.999-0.129-0.534 0.291-1.085 0.703-1.653 1.236v0l-4.953 4.679c-0.43 0.429-0.825 0.892-1.185 1.391-0.369 0.501-0.708 1.08-1.017 1.734v0l-3.523 7.459 0.352 0.166 2.846-6.027zM82.229 259.602l-2.314 4.9c-0.21 0.444-0.461 0.719-0.753 0.824-0.292 0.105-0.66 0.052-1.104-0.158v0l-5.153-2.434c-0.444-0.21-0.719-0.461-0.824-0.752-0.105-0.292-0.052-0.66 0.158-1.104v0l4.369-9.252c0.329-0.697 0.82-1.449 1.474-2.257 0.653-0.808 1.501-1.708 2.542-2.7v0l6.801-6.516c0.325-0.331 0.679-0.52 1.061-0.568 0.382-0.047 0.804 0.038 1.267 0.257v0l9.423 4.45c0.444 0.21 0.77 0.477 0.976 0.803 0.206 0.325 0.285 0.719 0.236 1.18v0l-0.711 9.392c-0.104 1.434-0.261 2.66-0.47 3.678-0.209 1.018-0.478 1.875-0.807 2.572v0l-4.369 9.252c-0.21 0.444-0.461 0.719-0.753 0.823-0.292 0.105-0.66 0.052-1.104-0.158v0l-5.288-2.497c-0.468-0.221-0.767-0.483-0.896-0.787-0.129-0.303-0.088-0.677 0.122-1.121v0l2.315-4.9z" fill="#ffffff" data-fill-palette-color="primary"></path><path d="M116.752 277.914v0l-9.832-2.186c-0.48-0.107-0.859-0.283-1.138-0.528-0.272-0.244-0.443-0.626-0.511-1.145v0l-1.655-10.093c-0.103-0.608-0.183-1.136-0.24-1.584-0.057-0.448-0.095-0.872-0.116-1.271-0.012-0.404 0.008-0.818 0.062-1.242 0.053-0.424 0.147-0.937 0.281-1.54v0l2.22-9.987c0.107-0.48 0.291-0.803 0.552-0.969 0.262-0.166 0.632-0.196 1.112-0.09v0l6.01 1.336c0.48 0.107 0.822 0.295 1.028 0.565 0.205 0.27 0.255 0.645 0.148 1.125v0l-2.32 10.435c-0.056 0.253-0.086 0.511-0.09 0.776-0.004 0.264 0.011 0.547 0.046 0.847v0l0.604 5.686c0.022 0.27 0.071 0.461 0.148 0.574 0.085 0.107 0.228 0.183 0.429 0.228v0l0.418 0.093c0.201 0.045 0.359 0.036 0.475-0.027 0.124-0.068 0.25-0.22 0.378-0.457v0l2.964-4.934c0.166-0.256 0.303-0.504 0.41-0.746 0.102-0.243 0.18-0.491 0.237-0.743v0l2.311-10.396c0.107-0.48 0.291-0.803 0.552-0.969 0.262-0.166 0.632-0.196 1.112-0.09v0l5.942 1.321c0.48 0.107 0.803 0.291 0.969 0.552 0.166 0.262 0.196 0.632 0.09 1.112v0l-2.22 9.987c-0.134 0.603-0.267 1.108-0.398 1.514-0.131 0.406-0.288 0.79-0.47 1.151-0.187 0.353-0.402 0.72-0.643 1.102-0.248 0.38-0.547 0.824-0.898 1.331v0l-5.765 8.445c-0.282 0.441-0.598 0.714-0.948 0.82-0.357 0.104-0.775 0.103-1.254-0.003zM110.018 251.413l-0.38-0.084-1.815 8.169c-0.157 0.707-0.256 1.365-0.297 1.975-0.042 0.617-0.011 1.226 0.094 1.828v0l1.145 6.602c0.142 0.8 0.348 1.482 0.617 2.046 0.276 0.565 0.803 0.934 1.581 1.106v0l3.326 0.739c0.784 0.174 1.418 0.063 1.901-0.332 0.489-0.395 0.964-0.925 1.425-1.592v0l3.844-5.493c0.349-0.501 0.636-1.039 0.859-1.616 0.215-0.571 0.402-1.21 0.559-1.917v0l1.816-8.169-0.38-0.084-1.815 8.169c-0.146 0.655-0.333 1.266-0.561 1.835-0.236 0.573-0.511 1.091-0.825 1.551v0l-3.844 5.494c-0.392 0.6-0.796 1.085-1.211 1.455-0.416 0.37-0.977 0.477-1.684 0.32v0l-3.325-0.739c-0.707-0.157-1.167-0.491-1.38-1.001-0.22-0.511-0.383-1.123-0.491-1.834v0l-1.145-6.602c-0.095-0.552-0.125-1.137-0.09-1.755 0.027-0.613 0.114-1.247 0.26-1.902v0z" fill="#ffffff" data-fill-palette-color="primary"></path><path d="M148.482 280l-16.506-0.209c-0.491-0.006-0.845-0.12-1.062-0.342-0.216-0.222-0.321-0.579-0.315-1.07v0l0.058-4.612c0.006-0.491 0.12-0.845 0.342-1.062 0.222-0.216 0.579-0.321 1.07-0.315v0l3.835 0.048 0.165-13.01-3.835-0.048c-0.491-0.006-0.845-0.12-1.062-0.342-0.216-0.229-0.321-0.585-0.315-1.07v0l0.059-4.692c0.006-0.491 0.12-0.845 0.342-1.062 0.222-0.216 0.579-0.321 1.07-0.315v0l16.506 0.208c0.491 0.006 0.845 0.12 1.062 0.342 0.216 0.222 0.321 0.579 0.315 1.07v0l-0.059 4.692c-0.006 0.485-0.12 0.839-0.342 1.062-0.222 0.216-0.579 0.321-1.07 0.315v0l-3.756-0.047-0.164 13.01 3.756 0.047c0.491 0.006 0.845 0.12 1.061 0.342 0.216 0.222 0.321 0.579 0.316 1.071v0l-0.059 4.612c-0.006 0.491-0.12 0.845-0.342 1.061-0.222 0.216-0.579 0.321-1.07 0.316zM134.112 276.331l12.322 0.156 0.005-0.389-5.927-0.075 0.254-20.142 5.927 0.075 0.005-0.389-12.322-0.155-0.005 0.388 6.007 0.076-0.254 20.143-6.007-0.076z" fill="#ffffff" data-fill-palette-color="primary"></path><path d="M157.27 254.43l8.289-1.633c1.342-0.264 2.409-0.092 3.199 0.517 0.789 0.603 1.298 1.487 1.528 2.654v0l0.525 2.668c0.273 1.388 0.221 2.515-0.156 3.382-0.384 0.868-1.361 1.456-2.932 1.766v0l-8.289 1.632zM164.828 256.099l-2.854 0.562 0.959 4.868 2.854-0.563c0.658-0.13 1.067-0.39 1.227-0.779 0.161-0.384 0.192-0.83 0.092-1.339v0l-0.254-1.29c-0.1-0.508-0.298-0.913-0.594-1.213-0.295-0.294-0.771-0.376-1.43-0.246zM160.857 274.65l0.381-0.075-1.737-8.817 10.762-2.119c1.44-0.284 2.563-0.183 3.37 0.3 0.806 0.484 1.332 1.349 1.577 2.594v0l1.003 5.092 0.381-0.075-1.003-5.092c-0.259-1.316-0.836-2.249-1.729-2.797-0.9-0.547-2.122-0.669-3.666-0.365v0l-0.42 0.083c0.857-0.46 1.365-1.095 1.523-1.904 0.153-0.802 0.115-1.786-0.114-2.953v0l-0.518-2.629c-0.244-1.238-0.802-2.201-1.676-2.889-0.865-0.682-2.035-0.879-3.507-0.588v0l-8.67 1.707zM164.649 277.457v0l-5.855 1.153c-0.482 0.095-0.852 0.056-1.11-0.116-0.257-0.173-0.434-0.5-0.528-0.983v0l-4.852-24.632c-0.095-0.482-0.056-0.852 0.117-1.109 0.173-0.257 0.5-0.434 0.982-0.529v0l12.658-2.493c2.841-0.56 4.915-0.356 6.223 0.612 1.308 0.968 2.145 2.387 2.514 4.257v0l0.345 1.75c0.21 1.069 0.233 2.005 0.066 2.81-0.172 0.812-0.616 1.462-1.333 1.947v0c1.398-0.12 2.615 0.219 3.653 1.017 1.037 0.798 1.713 1.995 2.027 3.591v0l1.587 8.055c0.095 0.482 0.056 0.852-0.117 1.109-0.173 0.257-0.5 0.434-0.982 0.529v0l-5.894 1.161c-0.476 0.094-0.842 0.054-1.1-0.119-0.264-0.171-0.443-0.498-0.538-0.98v0l-1.146-5.816c-0.11-0.56-0.299-0.95-0.565-1.168-0.268-0.225-0.665-0.285-1.193-0.181v0l-5.327 1.049 1.467 7.448c0.095 0.482 0.056 0.852-0.117 1.109-0.173 0.257-0.5 0.434-0.982 0.529z" fill="#ffffff" data-fill-palette-color="primary"></path><path d="M187.594 260.079l-0.49-1.09c-0.286-0.636-0.497-1.251-0.633-1.845-0.14-0.585-0.234-1.151-0.283-1.697v0l-0.345-6.814c-0.028-0.694 0.008-1.311 0.107-1.851 0.093-0.537 0.494-0.965 1.203-1.284v0l3.462-1.557c0.66-0.297 1.225-0.304 1.695-0.02 0.464 0.287 0.964 0.677 1.499 1.172v0l5.035 4.661c0.376 0.399 0.737 0.845 1.082 1.337 0.354 0.496 0.674 1.062 0.961 1.699v0l0.49 1.09zM189.465 249.133v0l0.762 6.114 5.542-2.493-4.078-4.622c-0.186-0.171-0.356-0.281-0.508-0.329-0.144-0.045-0.288-0.034-0.434 0.032v0l-0.881 0.396c-0.139 0.063-0.243 0.164-0.311 0.304-0.059 0.143-0.09 0.343-0.092 0.598zM201.537 254.234l2.734 6.078 0.354-0.159-3.384-7.523c-0.297-0.66-0.625-1.244-0.985-1.752-0.351-0.505-0.737-0.976-1.159-1.412v0l-5.031-4.652c-0.586-0.559-1.141-0.991-1.664-1.295-0.517-0.307-1.166-0.284-1.947 0.068v0l-3.461 1.557c-0.8 0.36-1.265 0.838-1.397 1.436-0.125 0.595-0.17 1.282-0.133 2.059v0l0.341 6.805c0.047 0.605 0.142 1.207 0.287 1.805 0.142 0.606 0.361 1.24 0.658 1.899v0l3.384 7.523 0.354-0.159-2.734-6.078zM192.766 261.839l2.223 4.942c0.202 0.448 0.247 0.817 0.138 1.107-0.11 0.29-0.389 0.535-0.837 0.737v0l-5.197 2.338c-0.448 0.202-0.817 0.247-1.107 0.137-0.29-0.11-0.535-0.389-0.738-0.837v0l-4.197-9.331c-0.316-0.703-0.569-1.565-0.759-2.586-0.19-1.021-0.324-2.25-0.402-3.686v0l-0.537-9.404c-0.041-0.462 0.045-0.854 0.258-1.176 0.212-0.321 0.552-0.587 1.018-0.796v0l9.503-4.275c0.448-0.202 0.863-0.275 1.244-0.221 0.381 0.054 0.731 0.25 1.051 0.587v0l6.68 6.641c1.023 1.011 1.853 1.926 2.491 2.747 0.638 0.82 1.115 1.581 1.431 2.283v0l4.198 9.331c0.202 0.448 0.247 0.817 0.137 1.107-0.11 0.29-0.389 0.535-0.837 0.737v0l-5.334 2.399c-0.472 0.213-0.866 0.269-1.179 0.17-0.314-0.099-0.572-0.373-0.774-0.82v0l-2.223-4.943z" fill="#ffffff" data-fill-palette-color="primary"></path><path d="M217.59 223.143l11.479 15.363c0.712 0.952 1.222 1.918 1.531 2.898 0.314 0.976 0.338 1.99 0.072 3.043-0.261 1.049-0.867 2.169-1.817 3.36-0.951 1.191-2.336 2.466-4.156 3.825v0c-1.798 1.344-3.398 2.298-4.799 2.865-1.401 0.566-2.642 0.825-3.721 0.778-1.08-0.047-2.04-0.362-2.882-0.944-0.841-0.582-1.617-1.349-2.329-2.301v0l-3.756-5.028c-0.294-0.394-0.416-0.746-0.367-1.057 0.044-0.307 0.261-0.605 0.649-0.895v0l4.501-3.363c0.394-0.294 0.744-0.419 1.051-0.375 0.307 0.044 0.607 0.263 0.902 0.657v0l2.826 3.783c0.31 0.415 0.701 0.666 1.172 0.753 0.467 0.082 1.175-0.231 2.122-0.938v0c0.894-0.668 1.354-1.228 1.382-1.679 0.029-0.461-0.112-0.899-0.422-1.314v0l-10.549-14.118c-0.294-0.394-0.419-0.744-0.374-1.051 0.044-0.307 0.263-0.607 0.657-0.901v0l4.876-3.644c0.394-0.294 0.744-0.419 1.051-0.374 0.307 0.044 0.607 0.263 0.901 0.657zM215.427 227.371l-0.311 0.233 9.671 12.944c0.863 1.155 1.19 2.369 0.982 3.645-0.212 1.269-1.342 2.669-3.391 4.199v0c-2.134 1.594-3.848 2.328-5.145 2.203-1.306-0.127-2.398-0.779-3.276-1.955v0l-1.836-2.458-0.312 0.233 1.837 2.458c0.461 0.617 0.974 1.121 1.539 1.511 0.561 0.385 1.195 0.595 1.902 0.631 0.701 0.04 1.507-0.119 2.418-0.476 0.911-0.357 1.946-0.969 3.106-1.835v0c2.192-1.638 3.382-3.141 3.57-4.509 0.188-1.368-0.172-2.661-1.082-3.879v0z" fill="#ffffff" data-fill-palette-color="primary"></path></g></svg></g></svg></g></svg></g><g></g></svg></g><defs></defs></svg><rect width="280" height="280" fill="none" stroke="none" visibility="hidden"></rect></g></svg></g></svg>